<svg width="512" height="512" viewBox="0 0 512 512" fill="none" xmlns="http://www.w3.org/2000/svg">
<g clip-path="url(#clip0_2388_1176)">
<rect width="512" height="512" fill="black"/>
<path d="M264.341 429.902C158.18 429.902 96 353.567 96 256C96 158.433 158.18 82.0981 264.341 82.0981C337.643 82.0981 390.218 119.002 416 178.654L354.325 228.196C344.215 185.732 315.4 151.356 263.836 151.356C204.689 151.356 173.851 194.326 173.851 256C173.851 317.675 204.689 360.645 263.836 360.645C315.4 360.645 344.215 326.269 354.325 283.804L416 333.346C390.218 392.999 337.643 429.902 264.341 429.902Z" fill="#F4F2ED"/>
</g>
<defs>
<clipPath id="clip0_2388_1176">
<rect width="512" height="512" fill="white"/>
</clipPath>
</defs>
</svg>
