<svg width="800" height="418" viewBox="0 0 800 418" fill="none" xmlns="http://www.w3.org/2000/svg">
<rect width="800" height="418" fill="black"/>
<rect x="436" y="54" width="310" height="310" rx="12" fill="#D056EE"/>
<path d="M573.483 197.337L544.316 226.504L573.483 255.671" stroke="white" stroke-width="7" stroke-linecap="round" stroke-linejoin="round"/>
<path d="M637.65 162.337V203.171C637.65 209.359 635.191 215.294 630.816 219.67C626.44 224.046 620.505 226.504 614.316 226.504H544.316" stroke="white" stroke-width="7" stroke-linecap="round" stroke-linejoin="round"/>
<path d="M83.856 172.736C64.536 172.736 53.22 158.844 53.22 141.088C53.22 123.332 64.536 109.44 83.856 109.44C97.196 109.44 106.764 116.156 111.456 127.012L100.232 136.028C98.392 128.3 93.148 122.044 83.764 122.044C73 122.044 67.388 129.864 67.388 141.088C67.388 152.312 73 160.132 83.764 160.132C93.148 160.132 98.392 153.876 100.232 146.148L111.456 155.164C106.764 166.02 97.196 172.736 83.856 172.736ZM135.24 172.92C121.532 172.92 112.7 163.26 112.7 149.46C112.7 135.752 121.532 126 135.24 126C149.316 126 158.24 135.752 158.24 149.46C158.24 163.26 149.316 172.92 135.24 172.92ZM135.424 162.248C141.036 162.248 144.9 158.66 144.9 149.46C144.9 140.168 141.036 136.672 135.424 136.672C129.904 136.672 126.04 140.168 126.04 149.46C126.04 158.66 129.904 162.248 135.424 162.248ZM176.348 172.92C167.792 172.92 162.456 167.676 162.456 158.384V126.92H175.612V153.784C175.612 159.304 177.084 162.708 183.156 162.708C189.412 162.708 191.344 159.212 191.344 151.852V126.92H204.5V172H191.344V159.396C189.78 166.572 185.456 172.92 176.348 172.92ZM224.16 172H211.004V126.92H224.16V139.984C225.632 132.624 229.956 126 239.248 126C247.804 126 253.048 131.244 253.048 140.536V172H239.892V145.136C239.892 139.616 238.42 136.212 232.44 136.212C226.184 136.212 224.16 139.708 224.16 147.068V172ZM276.045 172.92C266.109 172.92 261.417 167.032 261.417 158.66V136.948H254.701V126.92H261.417V121.584L274.573 114.684V126.92H287.085V136.948H274.573V156.268C274.573 159.948 276.413 161.236 278.989 161.236C281.841 161.236 284.325 158.936 285.705 156.452L289.477 167.216C287.545 169.7 282.945 172.92 276.045 172.92Z" fill="#F4F2ED"/>
<path d="M73.124 258H59.968V196.36H77.356L87.384 219.268L93.18 237.576L98.976 219.268L109.004 196.36H126.392V258H113.236V234.908L115.076 210.068L107.716 230.584L100.08 247.328H86.28L78.644 230.584L71.192 210.068L73.124 234.908V258ZM153.267 258.92C139.559 258.92 130.727 249.26 130.727 235.46C130.727 221.752 139.559 212 153.267 212C167.343 212 176.268 221.752 176.268 235.46C176.268 249.26 167.343 258.92 153.267 258.92ZM153.451 248.248C159.063 248.248 162.928 244.66 162.928 235.46C162.928 226.168 159.063 222.672 153.451 222.672C147.931 222.672 144.067 226.168 144.067 235.46C144.067 244.66 147.931 248.248 153.451 248.248ZM193.916 258H180.76V212.92H193.916V227.088C195.388 219.544 199.804 212 208.452 212C215.076 212 218.756 216.232 218.756 223.316C218.756 228.192 217.284 232.056 216.18 233.804H203.484C205.14 232.148 206.704 228.928 206.704 226.352C206.704 223.776 205.508 221.844 202.656 221.844C198.148 221.844 193.916 226.72 193.916 234.172V258ZM241.833 258.92C227.481 258.92 218.741 249.352 218.741 235.46C218.741 221.568 227.481 212 240.729 212C255.081 212 262.257 221.568 262.257 233.344C262.257 235.276 262.073 237.852 261.797 238.864H231.069C231.897 245.212 236.129 248.248 242.017 248.248C248.365 248.248 251.769 245.488 253.425 241.624L261.429 249.628C258.025 254.504 251.953 258.92 241.833 258.92ZM240.821 222.12C235.209 222.12 231.713 225.248 231.069 231.32H250.389C249.929 225.34 246.709 222.12 240.821 222.12Z" fill="#F4F2ED"/>
<path d="M61.96 81H58.72V68.94H63.22L64.408 72.45L65.47 76.626L66.532 72.45L67.72 68.94H72.22V81H68.98V77.868L69.502 71.946L67.99 76.626L67.216 78.84H63.724L62.95 76.626L61.438 71.946L61.96 77.868V81ZM75.9776 81H72.5216L76.7876 68.94H81.3056L85.5716 81H82.0256L81.2876 78.75H76.7156L75.9776 81ZM78.1916 74.286L77.6156 76.05H80.3876L79.8116 74.286L79.0016 71.262L78.1916 74.286ZM89.1182 81H85.8782V68.94H89.1182V72.09L89.0282 74.214L90.6122 72.09L93.1862 68.94H96.9122L93.0242 73.638L97.0022 81H93.3842L90.7562 76.086L89.1182 77.958V81ZM107.03 81H97.7962V68.94H107.03V71.82H101.036V73.53H106.13V76.41H101.036V78.12H107.03V81ZM118.603 81H115.363V77.112L110.719 68.94H114.823L115.993 71.604L117.055 74.376L118.117 71.604L119.305 68.94H123.301L118.603 77.148V81ZM128.785 81.144C125.113 81.144 122.575 78.426 122.575 74.952C122.575 71.478 125.113 68.76 128.785 68.76C132.457 68.76 134.995 71.478 134.995 74.952C134.995 78.426 132.457 81.144 128.785 81.144ZM128.785 77.994C130.657 77.994 131.575 76.698 131.575 74.952C131.575 73.206 130.657 71.91 128.785 71.91C126.913 71.91 125.995 73.206 125.995 74.952C125.995 76.698 126.913 77.994 128.785 77.994ZM141.444 81.18C137.934 81.18 136.044 79.47 136.044 75.546V68.94H139.284V75.582C139.284 77.292 140.04 78.03 141.462 78.03C142.92 78.03 143.64 77.292 143.64 75.582V68.94H146.88V75.546C146.88 79.47 145.044 81.18 141.444 81.18ZM151.819 81H148.579V68.94H154.357C157.165 68.94 159.181 70.056 159.181 72.72C159.181 75.042 157.615 76.068 155.563 76.248C156.805 76.554 157.345 77.328 157.957 78.282L159.685 81H155.995L153.997 77.778C153.511 76.986 153.061 76.68 152.071 76.68H151.819V81ZM154.393 71.82H151.819V74.088H154.393C155.311 74.088 155.761 73.692 155.761 72.954C155.761 72.198 155.311 71.82 154.393 71.82ZM171.6 81H167.154L163.014 68.94H166.884L168.558 74.79L169.44 79.11L170.322 74.79L171.978 68.94H175.74L171.6 81ZM181.871 81.144C178.199 81.144 175.661 78.426 175.661 74.952C175.661 71.478 178.199 68.76 181.871 68.76C185.543 68.76 188.081 71.478 188.081 74.952C188.081 78.426 185.543 81.144 181.871 81.144ZM181.871 77.994C183.743 77.994 184.661 76.698 184.661 74.952C184.661 73.206 183.743 71.91 181.871 71.91C179.999 71.91 179.081 73.206 179.081 74.952C179.081 76.698 179.999 77.994 181.871 77.994ZM194.568 81H191.328V71.82H187.854V68.94H198.042V71.82H194.568V81ZM207.893 81H198.659V68.94H207.893V71.82H201.899V73.53H206.993V76.41H201.899V78.12H207.893V81Z" fill="#F4F2ED"/>
<path d="M56.6 312H54.68V297.54H56.6L61.58 309.7L66.56 297.54H68.52V312H66.6V306.28C66.6 303.58 66.62 302.6 66.72 301.58L62.5 312H60.66L56.46 301.62C56.56 302.32 56.6 303.8 56.6 305.82V312ZM74.427 312.24C72.327 312.24 71.087 311.06 71.087 309.28C71.087 307.48 72.427 306.36 74.727 306.18L77.807 305.94V305.66C77.807 304.02 76.827 303.44 75.507 303.44C73.927 303.44 73.027 304.14 73.027 305.32H71.387C71.387 303.28 73.067 301.94 75.587 301.94C78.007 301.94 79.647 303.22 79.647 305.86V312H78.047L77.847 310.42C77.347 311.54 76.007 312.24 74.427 312.24ZM74.967 310.78C76.747 310.78 77.827 309.62 77.827 307.78V307.26L75.327 307.46C73.667 307.62 72.987 308.26 72.987 309.22C72.987 310.26 73.747 310.78 74.967 310.78ZM83.2506 312H81.0906L84.5106 307.16L81.1106 302.22H83.2906L85.7706 305.86L88.1906 302.22H90.3306L86.9306 307.16L90.2706 312H88.0906L85.6506 308.42L83.2506 312ZM92.8191 299.9C92.1391 299.9 91.5791 299.34 91.5791 298.66C91.5791 297.96 92.1391 297.42 92.8191 297.42C93.4991 297.42 94.0591 297.96 94.0591 298.66C94.0591 299.34 93.4991 299.9 92.8191 299.9ZM91.8991 312V302.22H93.7791V312H91.8991ZM98.3884 312H96.5084V302.22H98.1884L98.3684 303.5C98.8684 302.58 99.9084 301.94 101.288 301.94C102.808 301.94 103.888 302.7 104.388 303.92C104.848 302.7 106.028 301.94 107.548 301.94C109.788 301.94 111.148 303.34 111.148 305.6V312H109.308V306.06C109.308 304.52 108.448 303.64 107.128 303.64C105.708 303.64 104.768 304.64 104.768 306.2V312H102.908V306.04C102.908 304.5 102.068 303.66 100.748 303.66C99.3284 303.66 98.3884 304.64 98.3884 306.2V312ZM114.675 299.9C113.995 299.9 113.435 299.34 113.435 298.66C113.435 297.96 113.995 297.42 114.675 297.42C115.355 297.42 115.915 297.96 115.915 298.66C115.915 299.34 115.355 299.9 114.675 299.9ZM113.755 312V302.22H115.635V312H113.755ZM125.384 312H117.764V310.48L123.044 303.8H117.764V302.22H125.384V303.76L120.064 310.42H125.384V312ZM131.51 312.24C128.63 312.24 126.65 310.16 126.65 307.12C126.65 304.06 128.59 301.94 131.43 301.94C134.21 301.94 136.03 303.86 136.03 306.76V307.46L128.47 307.48C128.61 309.54 129.69 310.68 131.55 310.68C133.01 310.68 133.97 310.08 134.29 308.96H136.05C135.57 311.06 133.93 312.24 131.51 312.24ZM131.43 303.52C129.79 303.52 128.75 304.5 128.51 306.22H134.15C134.15 304.6 133.09 303.52 131.43 303.52ZM142.658 316.38V314.84H143.918C144.818 314.84 145.538 314.7 145.998 313.46L146.338 312.52L142.398 302.22H144.378L147.218 310.1L150.118 302.22H152.058L147.438 314.2C146.778 315.88 145.798 316.58 144.298 316.58C143.678 316.58 143.158 316.5 142.658 316.38ZM152.548 307.1C152.548 304.08 154.708 301.96 157.648 301.96C160.568 301.96 162.728 304.08 162.728 307.1C162.728 310.12 160.568 312.24 157.648 312.24C154.708 312.24 152.548 310.12 152.548 307.1ZM154.448 307.1C154.448 309.14 155.748 310.56 157.648 310.56C159.528 310.56 160.848 309.14 160.848 307.1C160.848 305.06 159.528 303.64 157.648 303.64C155.748 303.64 154.448 305.06 154.448 307.1ZM171.335 302.22H173.195V312H171.515L171.315 310.52C170.755 311.54 169.455 312.24 168.015 312.24C165.735 312.24 164.455 310.7 164.455 308.3V302.22H166.335V307.68C166.335 309.78 167.235 310.58 168.675 310.58C170.395 310.58 171.335 309.48 171.335 307.38V302.22ZM181.523 302.14V303.86H180.683C178.903 303.86 177.803 304.94 177.803 306.82V312H175.923V302.24H177.683L177.803 303.72C178.203 302.7 179.183 302.02 180.523 302.02C180.863 302.02 181.143 302.06 181.523 302.14ZM189.675 299.9C188.995 299.9 188.435 299.34 188.435 298.66C188.435 297.96 188.995 297.42 189.675 297.42C190.355 297.42 190.915 297.96 190.915 298.66C190.915 299.34 190.355 299.9 189.675 299.9ZM188.755 312V302.22H190.635V312H188.755ZM195.244 312H193.364V302.22H195.044L195.224 303.5C195.724 302.58 196.764 301.94 198.144 301.94C199.664 301.94 200.744 302.7 201.244 303.92C201.704 302.7 202.884 301.94 204.404 301.94C206.644 301.94 208.004 303.34 208.004 305.6V312H206.164V306.06C206.164 304.52 205.304 303.64 203.984 303.64C202.564 303.64 201.624 304.64 201.624 306.2V312H199.764V306.04C199.764 304.5 198.924 303.66 197.604 303.66C196.184 303.66 195.244 304.64 195.244 306.2V312ZM210.61 316.38V302.22H212.31L212.45 303.98C213.11 302.64 214.43 301.94 215.99 301.94C218.79 301.94 220.53 304.04 220.53 307.04C220.53 310.02 218.89 312.26 215.99 312.26C214.43 312.26 213.13 311.6 212.49 310.4V316.38H210.61ZM212.51 307.12C212.51 309.12 213.67 310.56 215.59 310.56C217.51 310.56 218.65 309.12 218.65 307.12C218.65 305.1 217.51 303.66 215.59 303.66C213.67 303.66 212.51 305.08 212.51 307.12ZM225.462 312.24C223.362 312.24 222.122 311.06 222.122 309.28C222.122 307.48 223.462 306.36 225.762 306.18L228.842 305.94V305.66C228.842 304.02 227.862 303.44 226.542 303.44C224.962 303.44 224.062 304.14 224.062 305.32H222.422C222.422 303.28 224.102 301.94 226.622 301.94C229.042 301.94 230.682 303.22 230.682 305.86V312H229.082L228.882 310.42C228.382 311.54 227.042 312.24 225.462 312.24ZM226.002 310.78C227.782 310.78 228.862 309.62 228.862 307.78V307.26L226.362 307.46C224.702 307.62 224.022 308.26 224.022 309.22C224.022 310.26 224.782 310.78 226.002 310.78ZM232.646 307.12C232.646 304.06 234.586 301.94 237.446 301.94C239.906 301.94 241.626 303.34 241.966 305.52H240.086C239.766 304.28 238.766 303.62 237.506 303.62C235.726 303.62 234.506 304.98 234.506 307.1C234.506 309.2 235.646 310.56 237.426 310.56C238.766 310.56 239.766 309.86 240.106 308.7H241.986C241.606 310.82 239.786 312.24 237.426 312.24C234.546 312.24 232.646 310.2 232.646 307.12ZM246.729 312H244.849V303.8H242.929V302.22H244.849V299.16H246.729V302.22H248.649V303.8H246.729V312ZM257.505 312H255.805V297.28H257.685V303.9C258.325 302.62 259.645 301.94 261.245 301.94C264.045 301.94 265.725 304.14 265.725 307.16C265.725 310.12 263.965 312.24 261.125 312.24C259.585 312.24 258.285 311.56 257.645 310.22L257.505 312ZM257.705 307.08C257.705 309.12 258.865 310.54 260.785 310.54C262.705 310.54 263.845 309.1 263.845 307.08C263.845 305.08 262.705 303.64 260.785 303.64C258.865 303.64 257.705 305.08 257.705 307.08ZM266.525 316.38V314.84H267.785C268.685 314.84 269.405 314.7 269.865 313.46L270.205 312.52L266.265 302.22H268.245L271.085 310.1L273.985 302.22H275.925L271.305 314.2C270.645 315.88 269.665 316.58 268.165 316.58C267.545 316.58 267.025 316.5 266.525 316.38ZM284.815 312H282.935V297.28H284.815V306.82L289.155 302.22H291.515L287.775 306.12L291.495 312H289.335L286.475 307.48L284.815 309.22V312ZM294.931 312H293.051V302.22H294.751L294.951 303.72C295.571 302.6 296.811 301.94 298.191 301.94C300.771 301.94 301.951 303.52 301.951 306.02V312H300.071V306.44C300.071 304.46 299.151 303.66 297.711 303.66C295.951 303.66 294.931 304.92 294.931 306.82V312ZM303.915 307.1C303.915 304.08 306.075 301.96 309.015 301.96C311.935 301.96 314.095 304.08 314.095 307.1C314.095 310.12 311.935 312.24 309.015 312.24C306.075 312.24 303.915 310.12 303.915 307.1ZM305.815 307.1C305.815 309.14 307.115 310.56 309.015 310.56C310.895 310.56 312.215 309.14 312.215 307.1C312.215 305.06 310.895 303.64 309.015 303.64C307.115 303.64 305.815 305.06 305.815 307.1ZM317.827 312L314.627 302.22H316.567L318.187 307.3C318.407 308.02 318.607 308.76 318.787 309.62C318.947 308.76 319.207 307.94 319.427 307.3L321.067 302.22H322.987L324.607 307.3C324.767 307.78 325.087 308.92 325.247 309.62C325.407 308.84 325.587 308.16 325.867 307.3L327.507 302.22H329.467L326.127 312H324.347L322.647 306.76C322.327 305.78 322.127 305.02 322.027 304.48C321.927 304.96 321.747 305.6 321.387 306.78L319.687 312H317.827ZM331.999 299.9C331.319 299.9 330.759 299.34 330.759 298.66C330.759 297.96 331.319 297.42 331.999 297.42C332.679 297.42 333.239 297.96 333.239 298.66C333.239 299.34 332.679 299.9 331.999 299.9ZM331.079 312V302.22H332.959V312H331.079ZM337.568 312H335.688V302.22H337.388L337.588 303.72C338.208 302.6 339.448 301.94 340.828 301.94C343.408 301.94 344.588 303.52 344.588 306.02V312H342.708V306.44C342.708 304.46 341.788 303.66 340.348 303.66C338.588 303.66 337.568 304.92 337.568 306.82V312ZM346.572 306.86C346.572 304.1 348.352 301.94 351.192 301.94C352.772 301.94 353.992 302.66 354.612 303.88L354.752 302.22H356.432V311.6C356.432 314.68 354.532 316.64 351.532 316.64C348.872 316.64 347.052 315.14 346.692 312.66H348.572C348.812 314.1 349.892 314.94 351.532 314.94C353.372 314.94 354.572 313.74 354.572 311.88V309.92C353.932 311.06 352.652 311.74 351.112 311.74C348.332 311.74 346.572 309.6 346.572 306.86ZM348.452 306.82C348.452 308.66 349.592 310.1 351.432 310.1C353.332 310.1 354.492 308.74 354.492 306.82C354.492 304.94 353.372 303.58 351.452 303.58C349.572 303.58 348.452 305.02 348.452 306.82ZM56.46 340L53.26 330.22H55.2L56.82 335.3C57.04 336.02 57.24 336.76 57.42 337.62C57.58 336.76 57.84 335.94 58.06 335.3L59.7 330.22H61.62L63.24 335.3C63.4 335.78 63.72 336.92 63.88 337.62C64.04 336.84 64.22 336.16 64.5 335.3L66.14 330.22H68.1L64.76 340H62.98L61.28 334.76C60.96 333.78 60.76 333.02 60.66 332.48C60.56 332.96 60.38 333.6 60.02 334.78L58.32 340H56.46ZM71.5916 339.98H69.7116V325.28H71.5916V331.72C72.2116 330.66 73.3916 329.94 74.9116 329.94C77.4116 329.94 78.6116 331.52 78.6116 334.02V340H76.7316V334.44C76.7316 332.46 75.7916 331.66 74.3916 331.66C72.5716 331.66 71.5916 332.98 71.5916 334.66V339.98ZM85.4355 340.24C82.5555 340.24 80.5755 338.16 80.5755 335.12C80.5755 332.06 82.5155 329.94 85.3555 329.94C88.1355 329.94 89.9555 331.86 89.9555 334.76V335.46L82.3955 335.48C82.5355 337.54 83.6155 338.68 85.4755 338.68C86.9355 338.68 87.8955 338.08 88.2155 336.96H89.9755C89.4955 339.06 87.8555 340.24 85.4355 340.24ZM85.3555 331.52C83.7155 331.52 82.6755 332.5 82.4355 334.22H88.0755C88.0755 332.6 87.0155 331.52 85.3555 331.52ZM97.6553 330.14V331.86H96.8153C95.0353 331.86 93.9353 332.94 93.9353 334.82V340H92.0553V330.24H93.8153L93.9353 331.72C94.3353 330.7 95.3153 330.02 96.6553 330.02C96.9953 330.02 97.2753 330.06 97.6553 330.14ZM103.287 340.24C100.407 340.24 98.427 338.16 98.427 335.12C98.427 332.06 100.367 329.94 103.207 329.94C105.987 329.94 107.807 331.86 107.807 334.76V335.46L100.247 335.48C100.387 337.54 101.467 338.68 103.327 338.68C104.787 338.68 105.747 338.08 106.067 336.96H107.827C107.347 339.06 105.707 340.24 103.287 340.24ZM103.207 331.52C101.567 331.52 100.527 332.5 100.287 334.22H105.927C105.927 332.6 104.867 331.52 103.207 331.52ZM114.436 344.38V342.84H115.696C116.596 342.84 117.316 342.7 117.776 341.46L118.116 340.52L114.176 330.22H116.156L118.996 338.1L121.896 330.22H123.836L119.216 342.2C118.556 343.88 117.576 344.58 116.076 344.58C115.456 344.58 114.936 344.5 114.436 344.38ZM124.325 335.1C124.325 332.08 126.485 329.96 129.425 329.96C132.345 329.96 134.505 332.08 134.505 335.1C134.505 338.12 132.345 340.24 129.425 340.24C126.485 340.24 124.325 338.12 124.325 335.1ZM126.225 335.1C126.225 337.14 127.525 338.56 129.425 338.56C131.305 338.56 132.625 337.14 132.625 335.1C132.625 333.06 131.305 331.64 129.425 331.64C127.525 331.64 126.225 333.06 126.225 335.1ZM143.112 330.22H144.972V340H143.292L143.092 338.52C142.532 339.54 141.232 340.24 139.792 340.24C137.512 340.24 136.232 338.7 136.232 336.3V330.22H138.112V335.68C138.112 337.78 139.012 338.58 140.452 338.58C142.172 338.58 143.112 337.48 143.112 335.38V330.22ZM153.3 330.14V331.86H152.46C150.68 331.86 149.58 332.94 149.58 334.82V340H147.7V330.24H149.46L149.58 331.72C149.98 330.7 150.96 330.02 152.3 330.02C152.64 330.02 152.92 330.06 153.3 330.14ZM163.272 340L159.332 330.22H161.332L163.472 335.68C163.812 336.6 164.092 337.42 164.252 338.02C164.412 337.38 164.732 336.54 165.072 335.68L167.252 330.22H169.212L165.132 340H163.272ZM169.618 335.1C169.618 332.08 171.778 329.96 174.718 329.96C177.638 329.96 179.798 332.08 179.798 335.1C179.798 338.12 177.638 340.24 174.718 340.24C171.778 340.24 169.618 338.12 169.618 335.1ZM171.518 335.1C171.518 337.14 172.818 338.56 174.718 338.56C176.598 338.56 177.918 337.14 177.918 335.1C177.918 333.06 176.598 331.64 174.718 331.64C172.818 331.64 171.518 333.06 171.518 335.1ZM184.542 340H182.662V331.8H180.742V330.22H182.662V327.16H184.542V330.22H186.462V331.8H184.542V340ZM192.271 340.24C189.391 340.24 187.411 338.16 187.411 335.12C187.411 332.06 189.351 329.94 192.191 329.94C194.971 329.94 196.791 331.86 196.791 334.76V335.46L189.231 335.48C189.371 337.54 190.451 338.68 192.311 338.68C193.771 338.68 194.731 338.08 195.051 336.96H196.811C196.331 339.06 194.691 340.24 192.271 340.24ZM192.191 331.52C190.551 331.52 189.511 332.5 189.271 334.22H194.911C194.911 332.6 193.851 331.52 192.191 331.52ZM203.72 335.12C203.72 332.06 205.66 329.94 208.52 329.94C210.98 329.94 212.7 331.34 213.04 333.52H211.16C210.84 332.28 209.84 331.62 208.58 331.62C206.8 331.62 205.58 332.98 205.58 335.1C205.58 337.2 206.72 338.56 208.5 338.56C209.84 338.56 210.84 337.86 211.18 336.7H213.06C212.68 338.82 210.86 340.24 208.5 340.24C205.62 340.24 203.72 338.2 203.72 335.12ZM214.404 335.1C214.404 332.08 216.564 329.96 219.504 329.96C222.424 329.96 224.584 332.08 224.584 335.1C224.584 338.12 222.424 340.24 219.504 340.24C216.564 340.24 214.404 338.12 214.404 335.1ZM216.304 335.1C216.304 337.14 217.604 338.56 219.504 338.56C221.384 338.56 222.704 337.14 222.704 335.1C222.704 333.06 221.384 331.64 219.504 331.64C217.604 331.64 216.304 333.06 216.304 335.1ZM233.19 330.22H235.05V340H233.37L233.17 338.52C232.61 339.54 231.31 340.24 229.87 340.24C227.59 340.24 226.31 338.7 226.31 336.3V330.22H228.19V335.68C228.19 337.78 229.09 338.58 230.53 338.58C232.25 338.58 233.19 337.48 233.19 335.38V330.22ZM239.658 340H237.778V330.22H239.478L239.678 331.72C240.298 330.6 241.538 329.94 242.918 329.94C245.498 329.94 246.678 331.52 246.678 334.02V340H244.798V334.44C244.798 332.46 243.878 331.66 242.438 331.66C240.678 331.66 239.658 332.92 239.658 334.82V340ZM252.042 340H250.162V331.8H248.242V330.22H250.162V327.16H252.042V330.22H253.962V331.8H252.042V340ZM254.849 337.16H256.649C256.649 338.16 257.409 338.76 258.649 338.76C259.969 338.76 260.729 338.22 260.729 337.32C260.729 336.66 260.409 336.26 259.389 336L257.669 335.6C255.929 335.18 255.109 334.32 255.109 332.88C255.109 331.08 256.629 329.94 258.789 329.94C260.929 329.94 262.329 331.14 262.369 333H260.569C260.529 332.02 259.869 331.4 258.729 331.4C257.549 331.4 256.889 331.92 256.889 332.82C256.889 333.48 257.369 333.92 258.329 334.16L260.049 334.58C261.709 334.98 262.529 335.74 262.529 337.2C262.529 339.06 260.929 340.24 258.609 340.24C256.309 340.24 254.849 339.02 254.849 337.16ZM271.963 340H270.083V330.22H271.763L271.943 331.5C272.443 330.58 273.483 329.94 274.863 329.94C276.383 329.94 277.463 330.7 277.963 331.92C278.423 330.7 279.603 329.94 281.123 329.94C283.363 329.94 284.723 331.34 284.723 333.6V340H282.883V334.06C282.883 332.52 282.023 331.64 280.703 331.64C279.283 331.64 278.343 332.64 278.343 334.2V340H276.483V334.04C276.483 332.5 275.643 331.66 274.323 331.66C272.903 331.66 271.963 332.64 271.963 334.2V340ZM286.689 335.1C286.689 332.08 288.849 329.96 291.789 329.96C294.709 329.96 296.869 332.08 296.869 335.1C296.869 338.12 294.709 340.24 291.789 340.24C288.849 340.24 286.689 338.12 286.689 335.1ZM288.589 335.1C288.589 337.14 289.889 338.56 291.789 338.56C293.669 338.56 294.989 337.14 294.989 335.1C294.989 333.06 293.669 331.64 291.789 331.64C289.889 331.64 288.589 333.06 288.589 335.1ZM304.55 330.14V331.86H303.71C301.93 331.86 300.83 332.94 300.83 334.82V340H298.95V330.24H300.71L300.83 331.72C301.23 330.7 302.21 330.02 303.55 330.02C303.89 330.02 304.17 330.06 304.55 330.14ZM310.182 340.24C307.302 340.24 305.322 338.16 305.322 335.12C305.322 332.06 307.262 329.94 310.102 329.94C312.882 329.94 314.702 331.86 314.702 334.76V335.46L307.142 335.48C307.282 337.54 308.362 338.68 310.222 338.68C311.682 338.68 312.642 338.08 312.962 336.96H314.722C314.242 339.06 312.602 340.24 310.182 340.24ZM310.102 331.52C308.462 331.52 307.422 332.5 307.182 334.22H312.822C312.822 332.6 311.762 331.52 310.102 331.52ZM317.596 340.24C316.816 340.24 316.156 339.6 316.156 338.84C316.156 338.06 316.816 337.42 317.596 337.42C318.356 337.42 319.016 338.06 319.016 338.84C319.016 339.6 318.356 340.24 317.596 340.24Z" fill="white"/>
</svg>
